<?xml version="1.0" standalone="no"?>
<!DOCTYPE svg PUBLIC "-//W3C//DTD SVG 20010904//EN"
 "http://www.w3.org/TR/2001/REC-SVG-20010904/DTD/svg10.dtd">
<svg version="1.0" xmlns="http://www.w3.org/2000/svg"
 width="1219.000000pt" height="1280.000000pt" viewBox="0 0 1219.000000 1280.000000"
 preserveAspectRatio="xMidYMid meet">
<metadata>
Created by potrace 1.15, written by Peter Selinger 2001-2017
</metadata>
<g transform="translate(0.000000,1280.000000) scale(0.100000,-0.100000)"
fill="#000000" stroke="none">
<path d="M5710 12794 c-311 -21 -393 -27 -505 -40 -970 -110 -1534 -371 -1394
-646 194 -380 1662 -620 3022 -492 1222 114 1844 479 1363 798 -267 178 -773
301 -1483 362 -166 14 -872 27 -1003 18z m1160 -323 c539 -45 858 -97 1055
-171 59 -23 135 -84 135 -110 0 -7 -17 -29 -37 -50 -104 -102 -521 -184 -1188
-232 -117 -8 -382 -13 -760 -13 -378 0 -643 5 -760 13 -667 48 -1084 130
-1187 232 -21 21 -38 43 -38 50 0 26 76 87 135 110 236 88 635 145 1300 184
129 7 1227 -3 1345 -13z"/>
<path d="M11305 12316 c-148 -39 -310 -118 -510 -251 -597 -396 -1458 -1308
-2308 -2445 -107 -144 -133 -186 -90 -148 28 24 664 433 1019 656 965 604
1957 1163 2112 1192 139 25 246 -50 319 -225 106 -252 131 -837 67 -1560 -49
-556 -152 -1288 -284 -2025 -54 -294 -213 -1090 -219 -1090 -3 0 -141 540
-306 1200 -165 660 -302 1200 -305 1200 -5 0 -601 -2972 -597 -2977 2 -1 135
396 297 882 176 527 297 878 301 867 3 -9 141 -961 305 -2114 164 -1154 301
-2098 304 -2098 10 0 168 952 264 1590 271 1795 426 3205 498 4540 19 356 16
1244 -5 1500 -49 602 -139 961 -287 1149 -57 72 -148 137 -227 161 -92 28
-229 27 -348 -4z"/>
<path d="M562 12284 c-235 -63 -374 -278 -461 -710 -74 -370 -95 -667 -95
-1339 0 -528 6 -719 45 -1300 90 -1356 323 -3220 635 -5073 42 -246 78 -464
81 -484 3 -21 8 -38 12 -38 3 0 140 942 304 2093 164 1150 301 2100 305 2110
5 11 111 -294 301 -863 161 -485 294 -880 296 -878 5 5 -589 2978 -595 2978
-3 0 -140 -540 -305 -1200 -165 -660 -302 -1200 -306 -1200 -3 0 -10 26 -17
58 -6 31 -36 181 -67 332 -216 1065 -365 2047 -432 2855 -12 152 -17 316 -17
595 0 349 2 398 22 528 46 292 120 450 238 508 48 24 63 26 126 22 65 -5 87
-13 242 -91 613 -307 1696 -957 2789 -1670 81 -54 150 -97 152 -97 20 0 -496
663 -774 995 -1123 1342 -1995 2000 -2479 1869z"/>
<path d="M5915 11274 c-16 -2 -66 -9 -110 -15 -326 -42 -682 -200 -949 -418
-100 -82 -261 -251 -335 -351 -282 -380 -415 -828 -390 -1320 45 -882 691
-1643 1548 -1824 687 -146 1390 87 1858 614 691 778 668 1965 -52 2718 -291
305 -663 502 -1090 577 -86 16 -415 28 -480 19z"/>
<path d="M2566 7593 c-10 -46 -605 -3927 -603 -3929 1 -1 616 408 1366 908
749 500 1365 907 1367 905 3 -2 -266 -1221 -596 -2708 -331 -1487 -604 -2719
-607 -2737 l-6 -32 2588 0 2588 0 -6 32 c-3 18 -276 1250 -607 2737 -330 1487
-599 2706 -596 2708 2 2 618 -405 1367 -905 750 -500 1365 -909 1366 -908 4 3
-605 3947 -610 3952 -3 3 -133 -18 -288 -46 -885 -160 -1773 -362 -2457 -559
-244 -70 -474 -101 -757 -101 -296 0 -511 30 -792 111 -516 148 -1203 311
-1891 449 -192 38 -797 150 -813 150 -4 0 -10 -12 -13 -27z"/>
</g>
</svg>
